<svg width="50" height="50" viewBox="0 0 50 50" fill="none" xmlns="http://www.w3.org/2000/svg">
<path fill-rule="evenodd" clip-rule="evenodd" d="M44.7739 11.3396V17.3024C44.7935 18.9237 44.1814 20.4864 43.0722 21.6469C41.963 22.8074 40.4476 23.4705 38.8594 23.4902H36.4348C35.6134 23.4005 34.9905 22.6928 34.9905 21.8495C34.9905 21.0062 35.6134 20.2986 36.4348 20.2088H38.7859C39.5296 20.2039 40.2407 19.8962 40.7613 19.3541C41.282 18.8121 41.5693 18.0803 41.5595 17.3211V11.3396C41.5397 9.78429 40.3095 8.52838 38.7859 8.50818H32.9265C31.3947 8.50818 30.1529 9.77584 30.1529 11.3396V20.2838C30.123 21.1908 29.3886 21.9071 28.4998 21.8964C28.0726 21.8866 27.6671 21.7027 27.3738 21.3856C27.0804 21.0685 26.9236 20.6447 26.9385 20.2088V11.3396C26.9336 9.71511 27.5623 8.15547 28.6858 7.00504C29.8093 5.8546 31.3352 5.208 32.9265 5.20801H38.7859C42.0673 5.28755 44.7061 7.98958 44.7739 11.3396ZM17.0748 5.20801H11.2154C7.90647 5.22848 5.22904 7.96172 5.20898 11.3396V17.3211C5.22913 20.6959 7.90945 23.4237 11.2154 23.434H17.0748C18.6661 23.439 20.1939 22.7971 21.3208 21.6502C22.4478 20.5033 23.0812 18.9456 23.0812 17.3211V11.3396C23.0711 7.95748 20.3878 5.2183 17.0748 5.20801ZM19.8484 17.3212C19.8582 18.0803 19.5709 18.8121 19.0502 19.3542C18.5295 19.8963 17.8185 20.2039 17.0748 20.2088H11.2154C10.4606 20.2243 9.7323 19.925 9.1985 19.3801C8.6647 18.8352 8.37155 18.0917 8.3867 17.3212V11.3396C8.38655 10.5788 8.68632 9.85 9.21845 9.31736C9.75057 8.78472 10.4703 8.4931 11.2154 8.50822H17.0748C18.6025 8.51844 19.8384 9.78013 19.8484 11.3396V17.3212ZM32.926 26.5651H38.7854C42.0913 26.5753 44.7717 29.3031 44.7918 32.6779V38.6595C44.7718 42.0373 42.0943 44.7706 38.7854 44.791H32.926C29.6201 44.7705 26.948 42.0343 26.938 38.6595V32.6779C26.938 29.3019 29.6189 26.5651 32.926 26.5651ZM40.7519 40.6669C41.2731 40.1348 41.5638 39.4117 41.5588 38.6592V32.6776C41.5588 31.9267 41.2666 31.2065 40.7465 30.6755C40.2263 30.1446 39.5209 29.8462 38.7853 29.8462H32.9258C31.394 29.8462 30.1522 31.1139 30.1522 32.6776V38.6592C30.1473 39.4117 30.4379 40.1348 30.9592 40.6669C31.4804 41.199 32.1887 41.4956 32.9258 41.4906H38.7853C39.5224 41.4956 40.2307 41.199 40.7519 40.6669ZM5.20898 38.6407V32.6779C5.20898 31.0534 5.84238 29.4957 6.96932 28.3488C8.09627 27.2019 9.62406 26.5601 11.2154 26.5651H13.6216C14.2368 26.4978 14.8357 26.795 15.1639 27.3305C15.4921 27.8659 15.4921 28.5456 15.1639 29.0811C14.8357 29.6165 14.2368 29.9137 13.6216 29.8465H11.2154C9.68055 29.8465 8.43351 31.1111 8.42341 32.6779V38.5844C8.46243 40.1386 9.69268 41.3863 11.2154 41.4158H17.1115C17.8503 41.4208 18.5605 41.1247 19.0846 40.5932C19.6088 40.0617 19.9035 39.3386 19.9035 38.5844V29.7152C19.7837 29.0529 20.0702 28.3827 20.6275 28.0221C21.1847 27.6614 21.9007 27.6826 22.4364 28.0757C22.9722 28.4688 23.2201 29.1549 23.0628 29.809V38.6407C23.0628 42.0271 20.3737 44.7723 17.0564 44.7723H11.2154C7.92681 44.7026 5.27721 41.9978 5.20898 38.6407Z" fill="white"/>
</svg>
