<svg width="24" height="24" viewBox="0 0 24 24" fill="none" xmlns="http://www.w3.org/2000/svg">
<g clip-path="url(#clip0)">
<path d="M18.581 2.14024L12.316 0.0512408C12.1109 -0.0170803 11.8891 -0.0170803 11.684 0.0512408L5.419 2.14024C4.42291 2.47112 3.55642 3.1075 2.94265 3.95895C2.32887 4.8104 1.99904 5.83363 2 6.88324V12.0002C2 19.5632 11.2 23.7402 11.594 23.9142C11.7218 23.971 11.8601 24.0004 12 24.0004C12.1399 24.0004 12.2782 23.971 12.406 23.9142C12.8 23.7402 22 19.5632 22 12.0002V6.88324C22.001 5.83363 21.6711 4.8104 21.0574 3.95895C20.4436 3.1075 19.5771 2.47112 18.581 2.14024ZM20 12.0002C20 17.4552 13.681 21.0332 12 21.8892C10.317 21.0362 4 17.4692 4 12.0002V6.88324C4.00006 6.25352 4.19828 5.63978 4.56657 5.12898C4.93486 4.61819 5.45455 4.23623 6.052 4.03724L12 2.05424L17.948 4.03724C18.5455 4.23623 19.0651 4.61819 19.4334 5.12898C19.8017 5.63978 19.9999 6.25352 20 6.88324V12.0002Z" fill="#374957"/>
<path d="M15.2988 8.30008L11.1108 12.5001L8.86682 10.1601C8.77676 10.0616 8.66791 9.98217 8.54668 9.92642C8.42544 9.87068 8.29428 9.83976 8.16091 9.83549C8.02755 9.83122 7.89467 9.85368 7.77012 9.90155C7.64557 9.94943 7.53186 10.0217 7.43569 10.1142C7.33952 10.2067 7.26283 10.3176 7.21015 10.4402C7.15747 10.5627 7.12985 10.6946 7.12893 10.8281C7.12801 10.9615 7.1538 11.0938 7.20479 11.2171C7.25578 11.3404 7.33093 11.4523 7.42582 11.5461L9.73182 13.9461C9.90379 14.1318 10.1117 14.2808 10.3428 14.3839C10.574 14.487 10.8237 14.5422 11.0768 14.5461H11.1098C11.3579 14.5469 11.6036 14.4984 11.8328 14.4035C12.062 14.3086 12.27 14.1691 12.4448 13.9931L16.7168 9.72107C16.8101 9.62797 16.8842 9.51739 16.9347 9.39567C16.9853 9.27394 17.0114 9.14345 17.0116 9.01164C17.0117 8.87982 16.9859 8.74927 16.9356 8.62744C16.8852 8.50561 16.8114 8.39488 16.7183 8.30158C16.6252 8.20827 16.5146 8.13422 16.3929 8.08365C16.2712 8.03308 16.1407 8.00698 16.0089 8.00684C15.8771 8.0067 15.7465 8.03252 15.6247 8.08284C15.5028 8.13315 15.3921 8.20697 15.2988 8.30008Z" fill="#1FB62E"/>
</g>
<defs>
<clipPath id="clip0">
<rect width="24" height="24" fill="white"/>
</clipPath>
</defs>
</svg>
