<svg width="169" height="59" viewBox="0 0 169 59" fill="none" xmlns="http://www.w3.org/2000/svg">
<path d="M19.96 2.08C29.9867 2.08 37.6933 4.53333 43.08 9.44C48.4667 14.2933 51.16 21.0667 51.16 29.76C51.16 38.4533 48.5467 45.3333 43.32 50.4C38.0933 55.4667 30.0933 58 19.32 58H0.76V2.08H19.96ZM41.64 30C41.64 17.2 34.3067 10.8 19.64 10.8H10.2V49.12H20.68C27.4533 49.12 32.6267 47.52 36.2 44.32C39.8267 41.0667 41.64 36.2933 41.64 30ZM103.178 15.28C99.3915 11.3333 94.7248 9.36 89.1781 9.36C83.6315 9.36 78.9381 11.3333 75.0981 15.28C71.3115 19.2267 69.4181 24.0267 69.4181 29.68C69.4181 35.28 71.3115 40.0533 75.0981 44C78.9381 47.9467 83.6315 49.92 89.1781 49.92C94.7248 49.92 99.3915 47.9467 103.178 44C107.018 40.0533 108.938 35.28 108.938 29.68C108.938 24.0267 107.018 19.2267 103.178 15.28ZM110.138 50.32C104.485 55.8133 97.4981 58.56 89.1781 58.56C80.8581 58.56 73.8715 55.8133 68.2181 50.32C62.5648 44.7733 59.7381 37.8933 59.7381 29.68C59.7381 21.4133 62.5648 14.5333 68.2181 9.04C73.8715 3.49333 80.8581 0.719998 89.1781 0.719998C97.4981 0.719998 104.485 3.49333 110.138 9.04C115.791 14.5333 118.618 21.4133 118.618 29.68C118.618 37.8933 115.791 44.7733 110.138 50.32ZM151.646 10.72V58H142.206V10.72H125.246V2.08H168.606V10.72H151.646Z" fill="#222222"/>
</svg>
