<svg width="242" height="56" viewBox="0 0 242 56" fill="none" xmlns="http://www.w3.org/2000/svg">
<path d="M0.120001 -3.8147e-06H22.92C28.84 -3.8147e-06 34.0667 1.2 38.6 3.6C43.1333 5.94667 46.6533 9.25333 49.16 13.52C51.6667 17.7333 52.92 22.56 52.92 28C52.92 33.44 51.6667 38.2933 49.16 42.56C46.6533 46.7733 43.1333 50.08 38.6 52.48C34.0667 54.8267 28.84 56 22.92 56H0.120001V-3.8147e-06ZM22.6 50.88C27.5067 50.88 31.8 49.92 35.48 48C39.16 46.0267 42.0133 43.3333 44.04 39.92C46.0667 36.4533 47.08 32.48 47.08 28C47.08 23.52 46.0667 19.5733 44.04 16.16C42.0133 12.6933 39.16 10 35.48 8.08C31.8 6.10666 27.5067 5.12 22.6 5.12H6.04V50.88H22.6ZM104.454 56L91.6538 38C90.2138 38.16 88.7204 38.24 87.1738 38.24H72.1338V56H66.2138V-3.8147e-06H87.1738C94.3204 -3.8147e-06 99.9204 1.70666 103.974 5.12C108.027 8.53333 110.054 13.2267 110.054 19.2C110.054 23.5733 108.934 27.28 106.694 30.32C104.507 33.3067 101.36 35.4667 97.2538 36.8L110.934 56H104.454ZM87.0138 33.2C92.5604 33.2 96.8004 31.9733 99.7338 29.52C102.667 27.0667 104.134 23.6267 104.134 19.2C104.134 14.6667 102.667 11.2 99.7338 8.8C96.8004 6.34666 92.5604 5.12 87.0138 5.12H72.1338V33.2H87.0138ZM124.026 -3.8147e-06H129.946V56H124.026V-3.8147e-06ZM194.102 -3.8147e-06L169.302 56H163.462L138.662 -3.8147e-06H145.062L166.502 48.64L188.102 -3.8147e-06H194.102ZM241.829 50.88V56H202.229V-3.8147e-06H240.629V5.12H208.149V25.04H237.109V30.08H208.149V50.88H241.829Z" fill="#222222"/>
</svg>
